<mxfile host="Electron" modified="2023-08-06T12:59:15.609Z" agent="Mozilla/5.0 (Windows NT 10.0; Win64; x64) AppleWebKit/537.36 (KHTML, like Gecko) draw.io/21.5.1 Chrome/112.0.5615.204 Electron/24.6.0 Safari/537.36" etag="QBzMi5b6pQGDE46N2izL" version="21.5.1" type="device">
  <diagram name="Page-1" id="kDfMYid_w7213j3C021h">
    <mxGraphModel dx="792" dy="845" grid="1" gridSize="10" guides="1" tooltips="1" connect="1" arrows="1" fold="1" page="1" pageScale="1" pageWidth="827" pageHeight="1169" math="0" shadow="0">
      <root>
        <mxCell id="0" />
        <mxCell id="1" parent="0" />
        <mxCell id="B_sqiGnPuNeuY_e6Ib82-9" style="edgeStyle=orthogonalEdgeStyle;rounded=0;orthogonalLoop=1;jettySize=auto;html=1;opacity=50;" edge="1" parent="1" source="B_sqiGnPuNeuY_e6Ib82-3" target="B_sqiGnPuNeuY_e6Ib82-6">
          <mxGeometry relative="1" as="geometry" />
        </mxCell>
        <mxCell id="B_sqiGnPuNeuY_e6Ib82-3" value="Message" style="html=1;verticalLabelPosition=bottom;align=center;labelBackgroundColor=#ffffff;verticalAlign=top;strokeWidth=2;strokeColor=#0080F0;shadow=0;dashed=0;shape=mxgraph.ios7.icons.envelope_(empty);" vertex="1" parent="1">
          <mxGeometry x="450" y="110" width="90" height="90" as="geometry" />
        </mxCell>
        <mxCell id="B_sqiGnPuNeuY_e6Ib82-4" value="Message" style="html=1;verticalLabelPosition=bottom;align=center;labelBackgroundColor=#ffffff;verticalAlign=top;strokeWidth=2;strokeColor=#0080F0;shadow=0;dashed=0;shape=mxgraph.ios7.icons.envelope_(message);" vertex="1" parent="1">
          <mxGeometry x="450" y="570" width="90" height="90" as="geometry" />
        </mxCell>
        <mxCell id="B_sqiGnPuNeuY_e6Ib82-11" style="edgeStyle=orthogonalEdgeStyle;rounded=0;orthogonalLoop=1;jettySize=auto;html=1;entryX=0.5;entryY=0.011;entryDx=0;entryDy=0;entryPerimeter=0;opacity=50;" edge="1" parent="1" source="B_sqiGnPuNeuY_e6Ib82-6" target="B_sqiGnPuNeuY_e6Ib82-4">
          <mxGeometry relative="1" as="geometry" />
        </mxCell>
        <mxCell id="B_sqiGnPuNeuY_e6Ib82-6" value="" style="rounded=1;whiteSpace=wrap;html=1;fillColor=#dae8fc;strokeColor=#6c8ebf;" vertex="1" parent="1">
          <mxGeometry x="400" y="330" width="190" height="130" as="geometry" />
        </mxCell>
        <mxCell id="B_sqiGnPuNeuY_e6Ib82-12" value="" style="rounded=1;whiteSpace=wrap;html=1;arcSize=55;" vertex="1" parent="1">
          <mxGeometry x="412" y="340" width="166" height="20" as="geometry" />
        </mxCell>
        <mxCell id="B_sqiGnPuNeuY_e6Ib82-13" value="" style="rounded=1;whiteSpace=wrap;html=1;arcSize=55;" vertex="1" parent="1">
          <mxGeometry x="412" y="370" width="166" height="20" as="geometry" />
        </mxCell>
        <mxCell id="B_sqiGnPuNeuY_e6Ib82-14" value="Message #2" style="rounded=1;whiteSpace=wrap;html=1;arcSize=55;fillColor=#fff2cc;strokeColor=#d6b656;" vertex="1" parent="1">
          <mxGeometry x="412" y="400" width="166" height="20" as="geometry" />
        </mxCell>
        <mxCell id="B_sqiGnPuNeuY_e6Ib82-15" value="Message #1" style="rounded=1;whiteSpace=wrap;html=1;arcSize=55;fillColor=#fff2cc;strokeColor=#d6b656;" vertex="1" parent="1">
          <mxGeometry x="412" y="430" width="166" height="20" as="geometry" />
        </mxCell>
        <mxCell id="B_sqiGnPuNeuY_e6Ib82-7" value="Enqueue" style="text;html=1;align=center;verticalAlign=middle;resizable=0;points=[];autosize=1;strokeColor=none;fillColor=none;fontColor=#00CC00;fontStyle=1;fontSize=15;" vertex="1" parent="1">
          <mxGeometry x="450" y="270" width="90" height="30" as="geometry" />
        </mxCell>
        <mxCell id="B_sqiGnPuNeuY_e6Ib82-8" value="Dequeue" style="text;html=1;align=center;verticalAlign=middle;resizable=0;points=[];autosize=1;strokeColor=none;fillColor=none;fontColor=#0000CC;fontStyle=1;fontSize=15;" vertex="1" parent="1">
          <mxGeometry x="450" y="490" width="90" height="30" as="geometry" />
        </mxCell>
      </root>
    </mxGraphModel>
  </diagram>
</mxfile>
